<svg width="845" height="850" viewBox="0 0 845 850" fill="none" xmlns="http://www.w3.org/2000/svg">
<rect width="845" height="850" fill="white"/>
<path d="M60.2998 353H69.8998V497H60.2998V353Z" fill="black"/>
<path d="M81.8998 353H101.1V497H81.8998V353Z" fill="black" fill-opacity="0.825"/>
<path d="M113.1 353H141.9V497H113.1V353Z" fill="black" fill-opacity="0.65"/>
<path d="M153.9 353H201.9V497H153.9V353Z" fill="black" fill-opacity="0.475"/>
<path d="M213.9 353H290.7V497H213.9V353Z" fill="black" fill-opacity="0.3"/>
<path d="M347.618 419.803H390.127V430.824H347.618V479H333.921V370.524H397.841L396.267 381.86H347.618V419.803ZM489.724 443.891C489.724 451.133 488.203 457.588 485.159 463.256C482.22 468.819 478.021 473.122 472.564 476.166C467.211 479.21 460.913 480.732 453.671 480.732C446.324 480.732 439.974 479.21 434.621 476.166C429.268 473.017 425.122 468.661 422.183 463.099C419.349 457.536 417.932 451.133 417.932 443.891V370.524H431.629V444.363C431.629 452.55 433.519 458.69 437.297 462.784C441.076 466.877 446.534 468.924 453.671 468.924C460.808 468.924 466.266 466.877 470.045 462.784C473.928 458.69 475.87 452.55 475.87 444.363V370.524H489.724V443.891ZM509.343 490.493L576.57 351.631L587.118 356.67L520.049 495.216L509.343 490.493ZM649.245 479H635.548V382.332H601.698V370.524H683.409L681.992 382.332H649.245V479ZM715.151 451.291L706.492 479H692.952L728.376 370.524H745.694L780.96 479H766.791L758.132 451.291H715.151ZM754.511 439.955L736.72 382.175L718.772 439.955H754.511Z" fill="black"/>
</svg>
