<svg width="1212" height="243" viewBox="0 0 1212 243" fill="none" xmlns="http://www.w3.org/2000/svg">
<path d="M271.697 114.338H342.545V132.706H271.697V213H248.868V32.207H355.402L352.778 51.0997H271.697V114.338ZM508.541 154.485C508.541 166.555 506.005 177.314 500.931 186.76C496.033 196.032 489.036 203.204 479.94 208.277C471.018 213.35 460.522 215.886 448.452 215.886C436.206 215.886 425.623 213.35 416.701 208.277C407.78 203.029 400.87 195.769 395.972 186.498C391.249 177.226 388.887 166.555 388.887 154.485V32.207H411.716V155.272C411.716 168.917 414.865 179.151 421.162 185.973C427.46 192.795 436.556 196.206 448.452 196.206C460.347 196.206 469.444 192.795 475.741 185.973C482.214 179.151 485.45 168.917 485.45 155.272V32.207H508.541V154.485ZM541.238 232.155L653.283 0.719117L670.864 9.11589L559.082 240.027L541.238 232.155ZM774.409 213H751.58V51.8869H695.164V32.207H831.349L828.988 51.8869H774.409V213ZM884.251 166.818L869.819 213H847.253L906.293 32.207H935.157L993.934 213H970.318L955.886 166.818H884.251ZM949.851 147.925L920.2 51.6245L890.287 147.925H949.851Z" fill="#AACFD1"/>
</svg>
