<svg width="456" height="794" viewBox="0 0 456 794" fill="none" xmlns="http://www.w3.org/2000/svg">
<path d="M37.3076 230.669L41.6377 228.169L106.59 265.669L102.26 268.169L37.3076 230.669Z" fill="#AACFD1"/>
<path d="M47.0504 225.044L55.7107 220.044L120.663 257.544L112.002 262.544L47.0504 225.044Z" fill="#8EADAF"/>
<path d="M61.1233 216.919L74.1137 209.419L139.066 246.919L126.075 254.419L61.1233 216.919Z" fill="#738C8F"/>
<path d="M79.5264 206.294L101.177 193.794L166.129 231.294L144.478 243.794L79.5264 206.294Z" fill="#576A6D"/>
<path d="M106.59 190.669L141.231 170.669L206.183 208.169L171.542 228.169L106.59 190.669Z" fill="#3C484C"/>
<path d="M197.568 173.311L216.742 162.241L221.713 165.111L202.539 176.181L224.27 188.726L218.091 192.293L169.163 164.045L197.995 147.399L202.397 150.761L180.454 163.43L197.568 173.311ZM272.531 142.577C275.798 144.463 278.023 146.54 279.207 148.809C280.39 151.023 280.438 153.237 279.349 155.451C278.307 157.637 276.153 159.674 272.886 161.56C269.572 163.473 266.022 164.73 262.234 165.332C258.4 165.906 254.565 165.851 250.73 165.168C246.943 164.457 243.416 163.159 240.149 161.273L207.057 142.167L213.235 138.6L246.54 157.829C250.233 159.961 253.855 161.068 257.405 161.15C260.956 161.232 264.341 160.343 267.56 158.485C270.78 156.626 272.318 154.672 272.176 152.622C272.082 150.544 270.188 148.44 266.495 146.308L233.19 127.079L239.439 123.471L272.531 142.577ZM302.4 149.604L270.089 95.9348L277.119 94.4998L309.36 148.046L302.4 149.604ZM360.32 110.178L354.142 113.745L310.539 88.5709L295.271 97.3858L289.945 94.3109L326.801 73.0319L331.488 76.4759L316.717 85.0039L360.32 110.178ZM377.549 85.7989L386.141 95.2699L380.034 98.7959L347.084 61.322L354.895 56.812L419.731 75.8769L413.34 79.5669L396.935 74.6059L377.549 85.7989ZM390.189 72.5969L356.102 62.183L374.069 81.9039L390.189 72.5969Z" fill="#AACFD1"/>
<path d="M98.5073 405.18L108.913 404.635L130.665 559.408L120.259 559.953L98.5073 405.18Z" fill="#AACFD1"/>
<path d="M121.919 403.953L142.73 402.863L164.482 557.636L143.671 558.726L121.919 403.953Z" fill="#8EADAF"/>
<path d="M155.737 402.181L186.953 400.545L208.705 555.318L177.489 556.954L155.737 402.181Z" fill="#738C8F"/>
<path d="M199.959 399.863L251.986 397.137L273.738 551.91L221.711 554.637L199.959 399.863Z" fill="#576A6D"/>
<path d="M264.993 396.455L348.235 392.092L369.987 546.866L286.745 551.228L264.993 396.455Z" fill="#3C484C"/>
<path d="M55.7198 732.453H91.1437L87.2624 740.777H51.8385L34.8716 777.162H23.4572L61.6605 695.235H114.927L109.623 703.797H69.0826L55.7198 732.453ZM165.658 750.646C163.108 756.116 159.566 760.991 155.033 765.272C150.625 769.473 145.611 772.723 139.991 775.022C134.458 777.321 128.674 778.47 122.639 778.47C116.516 778.47 111.761 777.321 108.372 775.022C105.02 772.644 103.099 769.354 102.609 765.153C102.207 760.951 103.281 756.116 105.831 750.646L131.67 695.235H143.084L117.079 751.003C114.196 757.186 113.608 761.823 115.315 764.915C117.022 768.006 120.85 769.552 126.797 769.552C132.745 769.552 138.014 768.006 142.605 764.915C147.283 761.823 151.063 757.186 153.946 751.003L179.951 695.235H191.497L165.658 750.646ZM165.595 785.843L270.521 680.966L277.537 684.771L172.853 789.41L165.595 785.843ZM286.227 777.162H274.813L308.858 704.153H280.65L284.808 695.235H352.901L347.562 704.153H320.272L286.227 777.162ZM350.907 756.235L333.933 777.162H322.65L390.373 695.235H404.805L395.99 777.162H384.182L386.725 756.235H350.907ZM387.7 747.673L393.223 704.034L357.917 747.673H387.7Z" fill="#AACFD1"/>
<path d="M350.77 314L107.77 22" stroke="#F7385B" stroke-width="3" stroke-linecap="round"/>
<path d="M328.77 623L107.77 378" stroke="#F7385B" stroke-width="3" stroke-linecap="round"/>
<path d="M116.77 792L350.77 682" stroke="#F7385B" stroke-width="3" stroke-linecap="round"/>
</svg>
