<svg width="398" height="742" viewBox="0 0 398 742" fill="none" xmlns="http://www.w3.org/2000/svg">
<path d="M17.6172 74H22.4172V146H17.6172V74Z" fill="#0000FF"/>
<path d="M28.4172 74H38.0172V146H28.4172V74Z" fill="#0000FF" fill-opacity="0.825"/>
<path d="M44.0172 74H58.4172V146H44.0172V74Z" fill="#0000FF" fill-opacity="0.65"/>
<path d="M64.4172 74H88.4172V146H64.4172V74Z" fill="#0000FF" fill-opacity="0.475"/>
<path d="M94.4172 74H132.817V146H94.4172V74Z" fill="#0000FF" fill-opacity="0.3"/>
<path d="M161.527 107.401H182.781V112.912H161.527V137H154.678V82.7621H186.638L185.851 88.4299H161.527V107.401ZM232.58 119.445C232.58 123.067 231.819 126.294 230.297 129.128C228.827 131.909 226.728 134.061 223.999 135.583C221.323 137.105 218.174 137.866 214.553 137.866C210.879 137.866 207.704 137.105 205.028 135.583C202.351 134.009 200.278 131.831 198.809 129.049C197.392 126.268 196.684 123.067 196.684 119.445V82.7621H203.532V119.682C203.532 123.775 204.477 126.845 206.366 128.892C208.255 130.939 210.984 131.962 214.553 131.962C218.122 131.962 220.851 130.939 222.74 128.892C224.682 126.845 225.652 123.775 225.652 119.682V82.7621H232.58V119.445ZM242.389 142.747L276.002 73.3157L281.277 75.8348L247.742 145.108L242.389 142.747ZM312.34 137H305.491V88.6661H288.567V82.7621H329.422L328.714 88.6661H312.34V137ZM345.293 123.145L340.963 137H334.193L351.905 82.7621H360.565L378.198 137H371.113L366.783 123.145H345.293ZM364.973 117.478L356.077 88.5874L347.103 117.478H364.973Z" fill="#0000FF"/>
<path d="M54.9673 257H66.9673V437H54.9673V257Z" fill="#FF0000"/>
<path d="M81.9673 257H105.967V437H81.9673V257Z" fill="#FF0000" fill-opacity="0.825"/>
<path d="M120.967 257H156.967V437H120.967V257Z" fill="#FF0000" fill-opacity="0.65"/>
<path d="M171.967 257H231.967V437H171.967V257Z" fill="#FF0000" fill-opacity="0.475"/>
<path d="M246.967 257H342.967V437H246.967V257Z" fill="#FF0000" fill-opacity="0.3"/>
<path d="M31.8159 603.669H67.2397V612.853H31.8159V653H20.4015V562.604H73.6685L72.3565 572.05H31.8159V603.669ZM150.238 623.742C150.238 629.778 148.97 635.157 146.433 639.88C143.984 644.516 140.485 648.102 135.937 650.638C131.476 653.175 126.228 654.443 120.193 654.443C114.07 654.443 108.779 653.175 104.318 650.638C99.8572 648.014 96.4023 644.385 93.9532 639.749C91.5916 635.113 90.4108 629.778 90.4108 623.742V562.604H101.825V624.136C101.825 630.958 103.4 636.075 106.548 639.486C109.697 642.898 114.245 644.603 120.193 644.603C126.141 644.603 130.689 642.898 133.838 639.486C137.074 636.075 138.692 630.958 138.692 624.136V562.604H150.238V623.742ZM166.586 662.578L222.609 546.86L231.399 551.058L175.508 666.514L166.586 662.578ZM283.172 653H271.757V572.443H243.549V562.604H311.642L310.461 572.443H283.172V653ZM338.093 629.909L330.877 653H319.594L349.114 562.604H363.546L392.934 653H381.126L373.91 629.909H338.093ZM370.893 620.463L356.067 572.312L341.111 620.463H370.893Z" fill="#00FF00"/>
</svg>
