<svg width="546" height="208" viewBox="0 0 546 208" fill="none" xmlns="http://www.w3.org/2000/svg">
<path d="M102.897 172.902C102.897 177.34 101.297 180.54 98.0975 182.502C94.9402 184.465 91.0362 185.446 86.3855 185.446H74.4815V141.35H85.3615C89.8415 141.35 93.5535 142.225 96.4975 143.974C99.4842 145.681 100.977 148.518 100.977 152.486C100.977 155.132 100.188 157.265 98.6095 158.886C97.0308 160.465 95.0682 161.532 92.7215 162.086C99.5055 163.238 102.897 166.844 102.897 172.902ZM95.2815 152.806C95.2815 150.374 94.5348 148.625 93.0415 147.558C91.5482 146.449 89.4148 145.894 86.6415 145.894H80.0495V160.102H87.1535C92.5722 160.102 95.2815 157.67 95.2815 152.806ZM97.0095 173.094C97.0095 169.98 96.1562 167.804 94.4495 166.566C92.7855 165.329 90.4815 164.71 87.5375 164.71H80.0495V180.838H87.3455C90.0335 180.838 92.3162 180.284 94.1935 179.174C96.0708 178.065 97.0095 176.038 97.0095 173.094ZM134.616 151.014C135.982 151.014 137.56 151.249 139.352 151.718L138.584 163.174H134.232V155.942H133.912C128.707 155.942 125.016 159.654 122.84 167.078V181.286H129.688V185.446H112.152V181.286H117.464V155.878H112.152V151.718H121.496L122.52 159.718C123.886 156.817 125.507 154.641 127.384 153.19C129.304 151.74 131.715 151.014 134.616 151.014ZM173.119 178.086C173.119 179.409 173.333 180.39 173.759 181.03C174.186 181.628 174.89 182.076 175.871 182.374L174.527 186.214C171.242 185.788 169.194 184.188 168.383 181.414C167.189 182.95 165.674 184.124 163.839 184.934C162.047 185.745 160.042 186.15 157.823 186.15C154.453 186.15 151.786 185.212 149.823 183.334C147.903 181.457 146.943 178.94 146.943 175.782C146.943 172.326 148.287 169.66 150.975 167.782C153.706 165.905 157.61 164.966 162.687 164.966H167.679V162.214C167.679 159.825 166.997 158.118 165.631 157.094C164.266 156.028 162.282 155.494 159.679 155.494C157.119 155.494 154.197 156.07 150.911 157.222L149.439 153.126C153.407 151.718 157.098 151.014 160.511 151.014C164.607 151.014 167.722 151.974 169.855 153.894C172.031 155.814 173.119 158.481 173.119 161.894V178.086ZM159.167 182.118C160.831 182.118 162.41 181.692 163.903 180.838C165.439 179.985 166.698 178.812 167.679 177.318V168.678H162.815C159.231 168.678 156.65 169.276 155.071 170.47C153.493 171.665 152.703 173.414 152.703 175.718C152.703 179.985 154.858 182.118 159.167 182.118ZM186.022 151.718H190.63L191.078 156.454C192.401 154.748 194.065 153.425 196.07 152.486C198.118 151.505 200.166 151.014 202.214 151.014C208.529 151.014 211.687 154.342 211.687 160.998V185.446H206.31V164.966C206.31 162.449 206.161 160.529 205.862 159.206C205.606 157.884 205.073 156.902 204.262 156.262C203.452 155.622 202.214 155.302 200.55 155.302C198.716 155.302 196.988 155.857 195.366 156.966C193.745 158.076 192.422 159.398 191.398 160.934V185.446H186.022V151.718ZM248.717 138.15V185.446H243.982L243.469 181.03C242.232 182.737 240.803 184.017 239.181 184.87C237.56 185.724 235.811 186.15 233.934 186.15C229.667 186.15 226.445 184.593 224.269 181.478C222.136 178.364 221.069 174.076 221.069 168.614C221.069 165.244 221.603 162.236 222.669 159.59C223.736 156.902 225.251 154.812 227.213 153.318C229.219 151.782 231.565 151.014 234.253 151.014C237.966 151.014 240.995 152.358 243.341 155.046V137.51L248.717 138.15ZM235.661 155.366C232.845 155.366 230.669 156.476 229.133 158.694C227.64 160.913 226.893 164.22 226.893 168.614C226.893 172.966 227.576 176.273 228.941 178.534C230.349 180.753 232.376 181.862 235.021 181.862C238.222 181.862 240.995 180.07 243.341 176.486V159.718C242.403 158.31 241.272 157.244 239.949 156.518C238.627 155.75 237.197 155.366 235.661 155.366ZM311.004 186.15C305.628 186.15 301.404 184.23 298.332 180.39C295.302 176.508 293.788 170.833 293.788 163.366C293.788 158.502 294.641 154.364 296.348 150.95C298.054 147.537 300.316 144.977 303.132 143.27C305.948 141.521 308.998 140.646 312.284 140.646C315.057 140.646 317.382 141.03 319.26 141.798C321.137 142.566 322.993 143.804 324.828 145.51L321.5 148.966C320.134 147.729 318.705 146.812 317.212 146.214C315.761 145.617 314.118 145.318 312.284 145.318C308.7 145.318 305.713 146.748 303.324 149.606C300.934 152.465 299.74 157.052 299.74 163.366C299.74 169.638 300.7 174.225 302.62 177.126C304.582 180.028 307.526 181.478 311.452 181.478C314.566 181.478 317.361 180.774 319.836 179.366V165.99H311.196L310.556 161.318H325.404V182.31C323.185 183.548 320.945 184.508 318.684 185.19C316.465 185.83 313.905 186.15 311.004 186.15ZM339.779 175.654C339.779 177.83 340.227 179.43 341.123 180.454C342.061 181.436 343.512 181.926 345.475 181.926C347.267 181.926 348.995 181.414 350.659 180.39C352.323 179.366 353.645 178.086 354.627 176.55V151.718H360.003V185.446H355.395L354.947 180.902C353.624 182.566 351.981 183.868 350.019 184.806C348.099 185.702 346.136 186.15 344.131 186.15C340.931 186.15 338.499 185.297 336.835 183.59C335.213 181.884 334.403 179.43 334.403 176.23V151.718H339.779V175.654ZM384.298 135.974C385.492 135.974 386.452 136.337 387.178 137.062C387.903 137.745 388.266 138.641 388.266 139.75C388.266 140.86 387.903 141.777 387.178 142.502C386.452 143.185 385.492 143.526 384.298 143.526C383.146 143.526 382.207 143.185 381.482 142.502C380.799 141.777 380.458 140.86 380.458 139.75C380.458 138.641 380.799 137.745 381.482 137.062C382.207 136.337 383.146 135.974 384.298 135.974ZM388.586 181.158H398.058V185.446H372.842V181.158H383.21V156.006H373.162V151.718H388.586V181.158ZM434.193 138.15V185.446H429.457L428.945 181.03C427.707 182.737 426.278 184.017 424.657 184.87C423.035 185.724 421.286 186.15 419.409 186.15C415.142 186.15 411.921 184.593 409.745 181.478C407.611 178.364 406.545 174.076 406.545 168.614C406.545 165.244 407.078 162.236 408.145 159.59C409.211 156.902 410.726 154.812 412.689 153.318C414.694 151.782 417.041 151.014 419.729 151.014C423.441 151.014 426.47 152.358 428.817 155.046V137.51L434.193 138.15ZM421.137 155.366C418.321 155.366 416.145 156.476 414.609 158.694C413.115 160.913 412.369 164.22 412.369 168.614C412.369 172.966 413.051 176.273 414.417 178.534C415.825 180.753 417.851 181.862 420.497 181.862C423.697 181.862 426.47 180.07 428.817 176.486V159.718C427.878 158.31 426.747 157.244 425.425 156.518C424.102 155.75 422.673 155.366 421.137 155.366ZM449.976 170.47C450.104 174.182 451.064 176.977 452.856 178.854C454.69 180.732 456.994 181.67 459.768 181.67C461.432 181.67 462.946 181.436 464.312 180.966C465.72 180.454 467.213 179.686 468.792 178.662L471.288 182.246C469.709 183.484 467.896 184.444 465.848 185.126C463.842 185.809 461.816 186.15 459.768 186.15C454.904 186.15 451.106 184.572 448.376 181.414C445.688 178.214 444.344 173.948 444.344 168.614C444.344 165.244 444.941 162.236 446.136 159.59C447.33 156.902 449.037 154.812 451.256 153.318C453.474 151.782 456.056 151.014 459 151.014C463.266 151.014 466.616 152.508 469.048 155.494C471.522 158.438 472.76 162.47 472.76 167.59C472.76 168.572 472.717 169.532 472.632 170.47H449.976ZM459.064 155.43C456.461 155.43 454.349 156.369 452.728 158.246C451.106 160.081 450.189 162.79 449.976 166.374H467.512C467.469 162.833 466.701 160.124 465.208 158.246C463.714 156.369 461.666 155.43 459.064 155.43Z" fill="#939C9E"/>
<path d="M98.8912 54.4567H124.811V61.1767H98.8912V90.5527H90.5392V24.4087H129.515L128.555 31.3207H98.8912V54.4567ZM183.622 69.1447C183.622 73.5607 182.694 77.4967 180.838 80.9527C179.046 84.3447 176.486 86.9687 173.158 88.8247C169.894 90.6807 166.054 91.6087 161.638 91.6087C157.158 91.6087 153.286 90.6807 150.022 88.8247C146.758 86.9047 144.23 84.2487 142.438 80.8567C140.71 77.4647 139.846 73.5607 139.846 69.1447V24.4087H148.198V69.4327C148.198 74.4247 149.35 78.1687 151.654 80.6647C153.958 83.1607 157.286 84.4087 161.638 84.4087C165.99 84.4087 169.318 83.1607 171.622 80.6647C173.99 78.1687 175.174 74.4247 175.174 69.4327V24.4087H183.622V69.1447ZM249.307 97.5607L290.299 12.8887L296.731 15.9607L255.835 100.441L249.307 97.5607ZM388.336 90.5527H379.984V31.6087H359.344V24.4087H409.168L408.304 31.6087H388.336V90.5527ZM426.602 73.6567L421.322 90.5527H413.066L434.666 24.4087H445.226L466.73 90.5527H458.09L452.81 73.6567H426.602ZM450.602 66.7447L439.754 31.5127L428.81 66.7447H450.602Z" fill="#AACFD1"/>
</svg>
