<svg width="845" height="850" viewBox="0 0 845 850" fill="none" xmlns="http://www.w3.org/2000/svg">
<rect width="845" height="850" fill="white"/>
<path d="M221.918 419.803H264.427V430.824H221.918V479H208.221V370.524H272.142L270.567 381.86H221.918V419.803ZM364.025 443.891C364.025 451.133 362.503 457.588 359.459 463.256C356.52 468.819 352.322 473.122 346.864 476.166C341.511 479.21 335.213 480.732 327.971 480.732C320.624 480.732 314.274 479.21 308.921 476.166C303.568 473.017 299.422 468.661 296.483 463.099C293.649 457.536 292.232 451.133 292.232 443.891V370.524H305.93V444.363C305.93 452.55 307.819 458.69 311.597 462.784C315.376 466.877 320.834 468.924 327.971 468.924C335.108 468.924 340.566 466.877 344.345 462.784C348.228 458.69 350.17 452.55 350.17 444.363V370.524H364.025V443.891ZM383.643 490.493L450.87 351.631L461.418 356.67L394.349 495.216L383.643 490.493ZM523.545 479H509.848V382.332H475.999V370.524H557.71L556.293 382.332H523.545V479ZM589.451 451.291L580.792 479H567.252L602.676 370.524H619.994L655.261 479H641.091L632.432 451.291H589.451ZM628.811 439.955L611.02 382.175L593.072 439.955H628.811Z" fill="black"/>
</svg>
