<svg width="845" height="851" viewBox="0 0 845 851" fill="none" xmlns="http://www.w3.org/2000/svg">
<path d="M60.2998 353.5H69.8998V497.5H60.2998V353.5Z" fill="white"/>
<path d="M81.8998 353.5H101.1V497.5H81.8998V353.5Z" fill="white" fill-opacity="0.825"/>
<path d="M113.1 353.5H141.9V497.5H113.1V353.5Z" fill="white" fill-opacity="0.65"/>
<path d="M153.9 353.5H201.9V497.5H153.9V353.5Z" fill="white" fill-opacity="0.475"/>
<path d="M213.9 353.5H290.7V497.5H213.9V353.5Z" fill="white" fill-opacity="0.3"/>
<path d="M347.618 420.303H390.127V431.324H347.618V479.5H333.921V371.024H397.841L396.267 382.36H347.618V420.303ZM489.724 444.391C489.724 451.633 488.203 458.088 485.159 463.756C482.22 469.319 478.021 473.622 472.564 476.666C467.211 479.71 460.913 481.232 453.671 481.232C446.324 481.232 439.974 479.71 434.621 476.666C429.268 473.517 425.122 469.161 422.183 463.599C419.349 458.036 417.932 451.633 417.932 444.391V371.024H431.629V444.863C431.629 453.05 433.519 459.19 437.297 463.284C441.076 467.377 446.534 469.424 453.671 469.424C460.808 469.424 466.266 467.377 470.045 463.284C473.928 459.19 475.87 453.05 475.87 444.863V371.024H489.724V444.391ZM509.343 490.993L576.57 352.131L587.118 357.17L520.049 495.716L509.343 490.993ZM649.245 479.5H635.548V382.832H601.698V371.024H683.409L681.992 382.832H649.245V479.5ZM715.151 451.791L706.492 479.5H692.952L728.376 371.024H745.694L780.96 479.5H766.791L758.132 451.791H715.151ZM754.511 440.455L736.72 382.675L718.772 440.455H754.511Z" fill="white"/>
</svg>
