<svg width="1212" height="243" viewBox="0 0 1212 243" fill="none" xmlns="http://www.w3.org/2000/svg">
<path d="M0.0654297 3H16.0654V243H0.0654297V3Z" fill="#AACFD1"/>
<path d="M36.0654 3H68.0654V243H36.0654V3Z" fill="#8EADAF"/>
<path d="M88.0654 3H136.065V243H88.0654V3Z" fill="#738C8F"/>
<path d="M156.065 3H236.065V243H156.065V3Z" fill="#576A6D"/>
<path d="M256.065 3H384.065V243H256.065V3Z" fill="#3C484C"/>
<path d="M479.697 114.338H550.545V132.706H479.697V213H456.868V32.207H563.402L560.778 51.0997H479.697V114.338ZM716.541 154.485C716.541 166.555 714.005 177.314 708.931 186.76C704.033 196.032 697.036 203.204 687.94 208.277C679.018 213.35 668.522 215.886 656.452 215.886C644.206 215.886 633.623 213.35 624.701 208.277C615.78 203.029 608.87 195.769 603.972 186.498C599.249 177.226 596.887 166.555 596.887 154.485V32.207H619.716V155.272C619.716 168.917 622.865 179.151 629.162 185.973C635.46 192.795 644.556 196.206 656.452 196.206C668.347 196.206 677.444 192.795 683.741 185.973C690.214 179.151 693.45 168.917 693.45 155.272V32.207H716.541V154.485ZM749.238 232.155L861.283 0.719117L878.864 9.11589L767.082 240.027L749.238 232.155ZM982.409 213H959.58V51.8869H903.164V32.207H1039.35L1036.99 51.8869H982.409V213ZM1092.25 166.818L1077.82 213H1055.25L1114.29 32.207H1143.16L1201.93 213H1178.32L1163.89 166.818H1092.25ZM1157.85 147.925L1128.2 51.6245L1098.29 147.925H1157.85Z" fill="#AACFD1"/>
</svg>
