<svg width="845" height="851" viewBox="0 0 845 851" fill="none" xmlns="http://www.w3.org/2000/svg">
<path d="M221.918 420.303H264.427V431.324H221.918V479.5H208.221V371.024H272.142L270.567 382.36H221.918V420.303ZM364.025 444.391C364.025 451.633 362.503 458.088 359.459 463.756C356.52 469.319 352.322 473.622 346.864 476.666C341.511 479.71 335.213 481.232 327.971 481.232C320.624 481.232 314.274 479.71 308.921 476.666C303.568 473.517 299.422 469.161 296.483 463.599C293.649 458.036 292.232 451.633 292.232 444.391V371.024H305.93V444.863C305.93 453.05 307.819 459.19 311.597 463.284C315.376 467.377 320.834 469.424 327.971 469.424C335.108 469.424 340.566 467.377 344.345 463.284C348.228 459.19 350.17 453.05 350.17 444.863V371.024H364.025V444.391ZM383.643 490.993L450.87 352.131L461.418 357.17L394.349 495.716L383.643 490.993ZM523.545 479.5H509.848V382.832H475.999V371.024H557.71L556.293 382.832H523.545V479.5ZM589.451 451.791L580.792 479.5H567.252L602.676 371.024H619.994L655.261 479.5H641.091L632.432 451.791H589.451ZM628.811 440.455L611.02 382.675L593.072 440.455H628.811Z" fill="white"/>
</svg>
